<svg width="22" height="17" viewBox="0 0 22 17" fill="none" xmlns="http://www.w3.org/2000/svg">
<path fill-rule="evenodd" clip-rule="evenodd" d="M21.0463 1.90623C20.2733 2.22823 19.4423 2.44323 18.5713 2.54123C19.4613 2.04123 20.1443 1.24923 20.4663 0.30723C19.6323 0.76923 18.7103 1.10523 17.7283 1.28723C16.9433 0.50123 15.8223 0.0112305 14.5833 0.0112305C12.2033 0.0112305 10.2723 1.82023 10.2723 4.05023C10.2723 4.36723 10.3103 4.67623 10.3843 4.97123C6.80233 4.80223 3.62633 3.19423 1.50033 0.75123C1.12933 1.34823 0.91733 2.04123 0.91733 2.78223C0.91733 4.18223 1.67833 5.42023 2.83433 6.14423C2.12833 6.12223 1.46433 5.94123 0.88233 5.63823C0.88233 5.65623 0.88233 5.67123 0.88233 5.69023C0.88233 7.64723 2.36733 9.27923 4.33933 9.65023C3.97833 9.74223 3.59633 9.79023 3.20433 9.79023C2.92633 9.79023 2.65633 9.76623 2.39333 9.72023C2.94133 11.3232 4.53333 12.4922 6.41933 12.5252C4.94433 13.6082 3.08633 14.2532 1.06633 14.2532C0.71833 14.2532 0.37533 14.2342 0.0383301 14.1972C1.94533 15.3422 4.21133 16.0122 6.64533 16.0122C14.5733 16.0122 18.9083 9.85623 18.9083 4.51923C18.9083 4.34323 18.9033 4.17023 18.8953 3.99623C19.7373 3.42623 20.4683 2.71523 21.0463 1.90623Z" fill="white"/>
</svg>
