<svg width="20" height="19" viewBox="0 0 20 19" fill="none" xmlns="http://www.w3.org/2000/svg">
<path fill-rule="evenodd" clip-rule="evenodd" d="M19.19 12.9563V8.88486V0.0112305H2.16868L0.0410156 2.30793V14.4178H5.36016V18.1761H7.70059L10.2538 15.4618H16.6368L19.19 12.9563ZM6.63667 12.7476H3.23242C2.99837 12.7476 2.80688 12.5597 2.80688 12.33V2.09922C2.80688 1.86955 2.99837 1.68164 3.23242 1.68164H16.8494C17.0835 1.68164 17.275 1.86955 17.275 2.09922V10.0333C17.275 10.1481 17.2324 10.2525 17.1526 10.3308L14.8122 12.6275C14.7324 12.7058 14.6207 12.7476 14.509 12.7476H10.5994L7.30157 14.9712C7.23242 15.0182 7.14731 15.0443 7.0622 15.0443C6.99305 15.0443 6.92923 15.0286 6.8654 14.9973C6.72178 14.9242 6.63667 14.7833 6.63667 14.6267V12.7476Z" fill="white"/>
<path d="M13.0197 9.09379V4.91797H11.3176V9.09379H13.0197ZM8.76438 9.09379V4.91797H7.06226V9.09379H8.76438Z" fill="white"/>
</svg>
